<?xml version="1.0" standalone="no"?>
<!DOCTYPE svg PUBLIC "-//W3C//DTD SVG 20010904//EN"
 "http://www.w3.org/TR/2001/REC-SVG-20010904/DTD/svg10.dtd">
<svg version="1.0" xmlns="http://www.w3.org/2000/svg"
 width="1664.000000pt" height="1664.000000pt" viewBox="0 0 1664.000000 1664.000000"
 preserveAspectRatio="xMidYMid meet">
<metadata>
Created by potrace 1.14, written by Peter Selinger 2001-2017
</metadata>
<g transform="translate(0.000000,1664.000000) scale(0.100000,-0.100000)"
fill="#000000" stroke="none">
<path d="M0 8320 l0 -3450 925 0 925 0 1 23 c0 12 0 1009 0 2215 1 1207 2
2192 4 2190 1 -2 13 -28 25 -58 12 -30 30 -75 40 -100 10 -25 31 -76 45 -115
15 -38 36 -89 46 -112 11 -24 19 -47 19 -53 0 -6 4 -18 10 -28 5 -9 48 -116
95 -237 47 -121 97 -247 110 -280 35 -89 150 -381 212 -540 30 -77 60 -153 67
-170 8 -16 17 -41 21 -55 4 -14 16 -43 25 -65 24 -53 52 -132 52 -142 0 -4 6
-15 13 -23 7 -8 14 -19 15 -25 1 -10 54 -155 70 -190 5 -11 21 -51 36 -90 15
-38 35 -89 45 -112 11 -23 19 -47 19 -53 0 -5 4 -18 10 -28 5 -9 30 -71 56
-137 44 -117 53 -141 74 -187 5 -13 50 -129 101 -258 50 -129 97 -249 104
-265 8 -17 28 -69 45 -115 17 -46 37 -98 44 -115 13 -27 138 -348 151 -385 1
-3 9 -21 17 -40 17 -41 26 -63 25 -70 0 -3 10 -24 22 -47 12 -24 20 -43 18
-43 -2 0 22 -64 54 -142 l57 -143 842 0 842 0 24 60 c14 33 24 61 24 63 0 1 8
23 20 49 11 26 28 69 38 97 9 28 21 54 25 57 5 3 8 9 7 13 -2 7 12 49 31 91 5
11 18 45 29 75 11 30 25 64 30 75 27 61 114 291 112 298 -1 4 3 7 10 7 6 0 9
3 5 6 -5 5 30 101 54 146 5 10 9 25 9 33 0 8 4 15 8 15 5 0 9 6 9 13 0 6 21
64 46 127 25 63 84 214 131 335 48 121 91 229 96 240 5 11 32 81 61 155 28 74
57 147 65 162 8 15 14 29 13 30 -1 4 18 55 30 83 5 11 15 36 21 55 7 19 19 49
25 65 7 17 29 71 48 120 20 50 41 104 48 120 7 17 13 32 14 35 2 9 86 224 95
245 5 11 25 63 45 115 20 52 40 104 45 115 27 59 80 201 80 212 0 7 5 13 10
13 6 0 9 3 8 8 -3 6 12 48 33 97 4 11 38 97 75 190 36 94 72 184 79 200 14 32
24 64 26 80 0 6 8 18 16 28 9 9 13 17 10 17 -3 0 7 32 24 71 16 40 29 78 29
85 0 8 3 14 8 14 4 0 12 17 19 38 6 20 17 51 23 67 6 17 11 31 11 33 -1 1 6
16 14 32 8 16 15 31 14 32 -2 2 4 14 11 28 8 14 15 34 17 45 2 11 7 23 12 28
5 5 9 -963 9 -2205 l0 -2213 923 -3 924 -2 0 3450 0 3450 -1268 -2 -1269 -3
-33 -82 c-18 -46 -30 -83 -27 -83 2 0 0 -6 -6 -13 -6 -7 -25 -53 -43 -102 -17
-50 -36 -94 -40 -99 -5 -6 -9 -15 -9 -22 0 -6 -6 -27 -14 -45 -8 -19 -14 -36
-13 -39 0 -3 -6 -16 -13 -30 -8 -14 -15 -28 -16 -32 -1 -5 -3 -10 -4 -13 -1
-3 -3 -8 -5 -12 -1 -5 -5 -17 -10 -28 -4 -11 -39 -101 -77 -200 -38 -99 -73
-189 -78 -200 -4 -11 -23 -58 -40 -105 -18 -47 -39 -98 -46 -115 -7 -16 -22
-57 -34 -90 -11 -33 -27 -73 -34 -90 -7 -16 -23 -57 -36 -90 -12 -33 -28 -73
-35 -90 -6 -16 -22 -59 -35 -95 -13 -36 -26 -69 -30 -75 -6 -9 -42 -100 -46
-115 0 -3 -4 -13 -7 -22 -4 -10 -10 -26 -14 -35 -3 -10 -7 -20 -8 -23 -1 -3
-5 -14 -10 -25 -45 -111 -85 -220 -85 -231 0 -8 -4 -14 -10 -14 -5 0 -9 -3 -8
-7 0 -5 -2 -17 -7 -28 -4 -11 -21 -55 -38 -99 -17 -43 -30 -84 -30 -92 0 -8
-4 -14 -9 -14 -4 0 -8 -5 -8 -10 0 -11 -67 -186 -147 -385 -25 -60 -46 -117
-47 -125 -2 -8 -10 -31 -18 -50 -19 -43 -92 -233 -93 -240 0 -3 -7 -16 -15
-30 -7 -14 -13 -27 -13 -30 0 -3 -3 -14 -7 -25 -103 -266 -140 -367 -140 -375
0 -5 -4 -10 -10 -10 -5 0 -9 -3 -8 -7 2 -10 -9 -48 -27 -88 -7 -16 -31 -79
-54 -140 -46 -122 -69 -180 -82 -210 -7 -17 -31 -78 -129 -335 -9 -25 -32 -83
-51 -130 -18 -47 -34 -89 -35 -95 -2 -5 -16 -43 -32 -83 l-29 -72 -47 122
c-26 68 -51 132 -56 143 -16 36 -134 340 -135 345 0 3 -14 41 -32 85 -17 44
-52 134 -78 200 -73 191 -166 428 -175 450 -4 11 -19 49 -33 85 -14 36 -46
119 -72 185 -26 66 -56 145 -67 175 -11 30 -29 74 -39 97 -11 24 -19 47 -19
53 0 6 -4 18 -9 28 -5 9 -16 35 -25 57 -28 70 -39 100 -41 105 -4 11 -17 46
-25 65 -9 23 -23 57 -25 65 -1 3 -9 22 -18 44 -9 21 -17 41 -17 45 0 3 -25 67
-55 141 -30 74 -55 140 -55 145 0 6 -6 21 -13 35 -7 14 -21 48 -31 75 -39 105
-88 231 -103 264 -8 18 -16 39 -18 45 -1 6 -7 25 -14 41 -6 17 -30 77 -52 135
-39 100 -47 120 -68 173 -21 51 -140 358 -227 587 -26 67 -29 74 -60 150 -11
24 -19 47 -19 50 0 3 -7 24 -17 45 -24 59 -60 151 -128 330 -34 88 -65 169
-70 180 -5 11 -20 49 -33 85 l-24 65 -1272 3 -1271 2 0 -3450z"/>
<path d="M10096 11523 c-3 -3 -19 -6 -36 -5 l-30 1 0 -694 0 -693 2038 0
c1120 -1 2048 -4 2062 -7 14 -3 37 -7 51 -10 71 -13 126 -51 155 -107 16 -30
16 -123 0 -187 -5 -23 -59 -186 -73 -221 -3 -8 -7 -22 -8 -30 -2 -8 -12 -44
-24 -80 -18 -58 -72 -240 -158 -530 l-28 -94 -1735 -1 -1735 0 -1 -617 c-1
-340 1 -619 5 -619 3 -1 836 -2 1851 -3 1015 -1 1861 -6 1880 -10 83 -20 145
-67 181 -138 44 -87 49 -140 45 -558 -1 -217 -6 -408 -10 -424 -32 -133 -125
-219 -248 -231 -29 -3 -1037 -5 -2240 -5 l-2186 -1 0 -695 0 -694 2686 3
c1478 2 2701 6 2717 9 17 3 57 9 90 12 32 4 62 9 66 12 4 2 24 6 44 10 62 10
67 11 165 44 52 18 101 37 108 42 6 6 12 8 12 5 0 -17 211 112 248 150 12 13
22 22 22 19 0 -10 78 71 122 129 27 33 52 65 58 72 44 54 155 328 164 410 2
15 5 28 6 28 1 0 5 19 15 80 17 103 20 252 20 975 0 716 -4 890 -20 964 -2 12
-7 35 -9 51 -9 58 -17 91 -38 160 -12 39 -22 73 -22 77 -1 3 -4 10 -8 14 -5 4
-8 16 -8 26 0 10 -4 18 -10 18 -5 0 -10 5 -10 11 0 15 -55 122 -83 162 -74
106 -180 216 -249 259 -40 24 -45 40 -27 85 31 75 41 105 45 120 1 7 14 43 27
80 14 38 34 93 44 123 10 30 23 58 28 62 6 4 7 8 3 8 -5 0 1 24 12 53 11 28
32 86 46 127 14 41 28 82 31 90 4 8 7 17 7 20 1 6 24 66 36 95 8 17 15 41 27
80 3 12 47 133 56 155 3 8 45 125 92 260 47 135 94 268 105 295 32 86 49 148
57 205 10 69 10 252 0 305 -33 178 -141 363 -283 485 -135 116 -343 209 -524
235 -19 3 -51 7 -70 10 -19 4 -126 7 -236 9 -111 2 -207 6 -213 10 -6 4 -11 4
-11 -1 0 -4 -29 -8 -65 -8 -36 0 -65 4 -65 8 0 5 -5 5 -12 1 -17 -11 -138 -11
-138 0 0 5 -6 4 -12 -1 -16 -10 -128 -10 -145 0 -7 5 -13 5 -13 0 0 -4 -29 -8
-65 -8 -36 0 -65 4 -65 8 0 5 -5 5 -12 1 -17 -11 -168 -11 -168 0 0 5 -6 4
-12 -1 -16 -10 -128 -10 -145 0 -7 5 -13 5 -13 0 0 -4 -29 -8 -65 -8 -36 0
-65 4 -65 8 0 5 -5 5 -12 1 -17 -11 -168 -11 -168 0 0 5 -6 4 -12 -1 -16 -10
-128 -10 -145 0 -7 5 -13 5 -13 0 0 -4 -29 -8 -65 -8 -36 0 -65 4 -65 8 0 5
-5 5 -12 1 -17 -11 -168 -11 -168 0 0 5 -6 4 -12 -1 -16 -10 -128 -10 -145 0
-7 5 -13 5 -13 0 0 -4 -29 -8 -65 -8 -36 0 -65 4 -65 8 0 5 -5 5 -12 1 -17
-11 -168 -11 -168 0 0 5 -6 4 -12 -1 -16 -10 -128 -10 -145 0 -7 5 -13 5 -13
0 0 -4 -29 -8 -65 -8 -36 0 -65 4 -65 8 0 5 -5 5 -12 1 -17 -11 -168 -11 -168
0 0 5 -6 4 -12 -1 -16 -10 -128 -10 -145 0 -7 5 -13 5 -13 0 0 -4 -29 -8 -65
-8 -36 0 -65 4 -65 8 0 5 -5 5 -12 1 -17 -11 -168 -11 -168 0 0 5 -6 4 -12 -1
-16 -10 -128 -10 -145 0 -7 5 -13 5 -13 0 0 -4 -29 -8 -65 -8 -36 0 -65 4 -65
8 0 5 -5 5 -12 1 -17 -11 -168 -11 -168 0 0 5 -6 4 -12 -1 -16 -10 -128 -10
-145 0 -7 5 -13 5 -13 0 0 -4 -29 -8 -65 -8 -36 0 -65 4 -65 8 0 5 -5 5 -12 1
-17 -11 -168 -11 -168 0 0 5 -6 4 -12 -1 -16 -10 -128 -10 -145 0 -7 5 -13 5
-13 0 0 -4 -29 -8 -65 -8 -36 0 -65 4 -65 8 0 5 -5 5 -12 1 -17 -11 -168 -11
-168 0 0 5 -6 4 -12 -1 -16 -10 -128 -10 -145 0 -7 5 -13 5 -13 0 0 -4 -29 -8
-65 -8 -36 0 -65 4 -65 8 0 5 -6 5 -12 0 -17 -9 -126 -11 -154 -1 -12 4 -25 4
-28 1z"/>
</g>
</svg>
